<svg xmlns="http://www.w3.org/2000/svg" data-name="Layer 1" width="882.131" height="764.5"><path d="M329.604 342.483q.556-.305 1.09-.63l2.741-13.124c5.377 5.585 15.95 4.53 20.118-2.005a341.657 341.657 0 0 0-56.696-84.966 30.62 30.62 0 0 1-.44-40.617q.132-.154.262-.31a144.968 144.968 0 0 0 36.605-18.485C294.654 120.282 220.994 70.976 203.486 0 150.813 56.564 144.9 76.486 92.228 133.05c0 0-49.875 45.005-60.64 69.191 2.645 2.779 26.325 9.446 27.236 14.91 18.06 1.447 49.347-18.348 49.347-18.348s-68.29 72.805-89.024 117.649c-1.867 4.038-3.64 8.65-2.076 12.814 1.249 3.325 5.729 5.243 8.614 3.921a36.937 36.937 0 0 0-8.148 11.668c11.79 7.969 29.177 6.218 39.142-3.942l-8.664 16.186.005.012a23.59 23.59 0 0 1 8.746 39.691c-17.92 16.667-34.296 34.186-40.296 45.723-5.644 10.854 52.313 23.937 65.349 23.4 13.036-.536 25.221-6.264 36.995-11.885a27.37 27.37 0 0 0 2.951 15.573 49.802 49.802 0 0 0 38.143-6.167c-.703 14.52 24.321 20.266 30.024 6.895-2.14 7.86 8.262 12.727 16.283 14.151 22.886 4.063 50.505 6.533 65.397-11.314 17.14 17.283 48.551 16.955 65.592-.268-1.677 2.971.89 7.972 4.688 8.76 4.475.928 8.828-1.73 12.628-4.271l51.6-34.497-79.193-53.387c-17.235-11.618-15.55-37.04 2.677-47.032Z" fill="#f2f2f2"/><path d="M196.767 763.795H185.58c-5.299-127.177-9.114-248.878 0-322.83h11.186ZM772.566 737.31a3.613 3.613 0 0 0 2.619-6.263l-.248-.984.098-.236a9.703 9.703 0 0 1 17.899.066c2.927 7.05 6.654 14.113 7.572 21.568a28.706 28.706 0 0 1-.504 9.873 115.086 115.086 0 0 0 10.47-47.8 111.082 111.082 0 0 0-.69-12.391q-.57-5.06-1.584-10.048a116.42 116.42 0 0 0-23.087-49.341 30.983 30.983 0 0 1-12.885-13.37 23.634 23.634 0 0 1-2.15-6.457c.628.082 1.265.133 1.893.174l.596.031.074.004a3.58 3.58 0 0 0 2.94-5.833l-.813-1c-.412-.513-.833-1.017-1.245-1.531a1.784 1.784 0 0 1-.133-.155c-.473-.586-.946-1.162-1.42-1.748a10.352 10.352 0 0 1 3.394-3.28c4.741-2.777 11.282-.854 14.706 3.434 3.435 4.289 4.083 10.305 2.89 15.663a41.485 41.485 0 0 1-5.739 12.793c.258.329.525.647.782.977a117.172 117.172 0 0 1 12.23 19.374 48.71 48.71 0 0 1 2.908-22.624c2.783-6.715 8-12.37 12.595-18.175 5.518-6.973 16.835-3.93 17.807 4.91l.027.256q-1.023.577-2.004 1.226a4.901 4.901 0 0 0 1.976 8.919l.1.015a48.767 48.767 0 0 1-1.285 7.291 50.21 50.21 0 0 1-25 31.469c-.401.205-.792.411-1.193.607a119.598 119.598 0 0 1 6.438 30.296 113.435 113.435 0 0 1-.083 18.315l.031-.216a29.974 29.974 0 0 1 10.233-17.308c7.874-6.468 19-8.85 27.494-14.05a5.625 5.625 0 0 1 8.616 5.473l-.035.227a32.928 32.928 0 0 0-3.692 1.779q-1.023.578-2.004 1.226a4.901 4.901 0 0 0 1.976 8.919l.1.015.206.031a48.808 48.808 0 0 1-8.978 14.058 50.254 50.254 0 0 1-36.446 15.991h-.01a119.562 119.562 0 0 1-8.032 23.447h-28.691c-.103-.318-.196-.647-.288-.966a32.599 32.599 0 0 0 7.94-.473c-2.13-2.612-4.258-5.245-6.387-7.857a1.78 1.78 0 0 1-.134-.154c-1.08-1.337-2.17-2.664-3.25-4v-.002a47.75 47.75 0 0 1 1.399-12.164ZM120.595 737.31a3.613 3.613 0 0 1-2.618-6.263l.247-.984-.098-.236a9.703 9.703 0 0 0-17.899.066c-2.927 7.05-6.654 14.113-7.572 21.568a28.706 28.706 0 0 0 .504 9.873 115.086 115.086 0 0 1-10.469-47.8 111.08 111.08 0 0 1 .69-12.391q.57-5.06 1.583-10.048a116.42 116.42 0 0 1 23.087-49.341 30.983 30.983 0 0 0 12.886-13.37 23.634 23.634 0 0 0 2.149-6.457c-.627.082-1.265.133-1.892.174l-.597.031-.074.004a3.58 3.58 0 0 1-2.94-5.833l.813-1c.412-.513.833-1.017 1.245-1.531a1.784 1.784 0 0 0 .133-.155c.474-.586.947-1.162 1.42-1.748a10.352 10.352 0 0 0-3.394-3.28c-4.74-2.777-11.281-.854-14.706 3.434-3.435 4.289-4.082 10.305-2.89 15.663a41.485 41.485 0 0 0 5.739 12.793c-.257.329-.525.647-.782.977a117.172 117.172 0 0 0-12.23 19.374 48.71 48.71 0 0 0-2.908-22.624c-2.783-6.715-8-12.37-12.595-18.175-5.518-6.973-16.834-3.93-17.807 4.91l-.027.256q1.023.577 2.004 1.226a4.901 4.901 0 0 1-1.976 8.919l-.1.015a48.767 48.767 0 0 0 1.285 7.291 50.21 50.21 0 0 0 25 31.469c.401.205.792.411 1.193.607a119.598 119.598 0 0 0-6.438 30.296 113.435 113.435 0 0 0 .083 18.315l-.031-.216A29.974 29.974 0 0 0 70.38 705.81c-7.874-6.468-18.999-8.85-27.494-14.05a5.625 5.625 0 0 0-8.616 5.473l.035.227a32.928 32.928 0 0 1 3.692 1.779q1.023.578 2.004 1.226a4.901 4.901 0 0 1-1.976 8.919l-.1.015-.206.031a48.808 48.808 0 0 0 8.978 14.058 50.254 50.254 0 0 0 36.446 15.991h.01a119.562 119.562 0 0 0 8.032 23.447h28.691c.103-.318.196-.647.288-.966a32.599 32.599 0 0 1-7.939-.473c2.129-2.612 4.258-5.245 6.386-7.857a1.781 1.781 0 0 0 .134-.154c1.08-1.337 2.17-2.664 3.25-4v-.002a47.75 47.75 0 0 0-1.399-12.164Z" fill="#f2f2f2"/><path fill="#e6e6e6" d="m536.792 608.62 7.449-2.935 60.668 153.94-7.448 2.936z"/><path fill="#e6e6e6" d="m502.43 762.56-7.448-2.935 60.668-153.94 7.449 2.935z"/><ellipse cx="546.832" cy="613.36" rx="52.931" ry="20.461" fill="#e6e6e6"/><path d="M591 622.057 506.312 611.9a30 30 0 1 1 7.145-59.572l84.686 10.156A30 30 0 1 1 591 622.057Z" fill="#2f2e41"/><path d="m574.396 409.082 12.412 12.04 15.867 7.038c-1.386.958-8.691 99.39.721 103.487 8.015 3.488-.153 6.373.124 14.493s1.314 24.82 1.314 24.82c-44.052 16.959-61.15 18.602-86.758-10.496a7.196 7.196 0 0 1 4.865-7.597c5.679-2.192-2.995-16.644 1.633-18.332s.791-21.6.791-21.6l-9.857-44.865-2.413-6.777 12.454-38.204 14.058-3.303 6.934-12.317Z" fill="#e6e6e6"/><path d="M408.436 500a11.926 11.926 0 0 1 17.97 3.397l41.725-7.433-8.713 20.228-38.287 3.957A11.99 11.99 0 0 1 408.436 500Z" fill="#a0616a"/><path d="M451.579 517.707c3.661 3.784 7.26 3.33 10.805-.598l49.653-2.745.152-.289c.175-.33 10.639-20.152 19.92-38.704a1068.1 1068.1 0 0 0 4.161-8.404q.862-1.762 1.682-3.458c3.684-7.629 6.62-14.078 7.767-17.466a35.202 35.202 0 0 0-.058-23.413l-.077-.183-.173-.1a17.864 17.864 0 0 0-22.072 3.461 126.533 126.533 0 0 0-27.976 50.858l-2.979 10.75-30.731 7.612c-3.136-1.692-5.84-1.272-7.967 1.973Z" fill="#e6e6e6"/><path fill="#ffb6b6" d="m499.819 721.289 10.545 9.622 42.132-36.096-15.564-14.201-37.113 40.675z"/><path d="m500.27 715.391 2.969 2.708 15.888 5.862 1.91 10.38h.002a17.917 17.917 0 0 1 1.157 25.311l-.392.43-34.002-31.026ZM579.705 608.993l-9.102-17.575c.76-17.797 16.196-31.7 33.92-29.927 9.87.988 18.93 6.865 22.147 23.454 8.275 42.655-91.56 127.083-91.56 127.083l-17.339-11.625-.388-11.615 10.165-5.757.375-9.88 9.643-4.144Z" fill="#2f2e41"/><circle cx="711.809" cy="443.192" r="27.213" transform="rotate(-84.509 595.054 496.79)" fill="#a0616a"/><path fill="#ffb6b6" d="m574.785 718.62-11.915 7.862-35.995-42.218 17.586-11.603 30.324 45.959z"/><path d="m585.445 728.165-38.42 25.35-.32-.486a17.917 17.917 0 0 1 5.086-24.821l3.505-9.956 16.608-3.315 3.353-2.213ZM520.326 607.288l11.266-18.317c2.021-17.697-11.06-33.836-28.844-34.845-9.904-.561-19.768 3.833-25.53 19.717-14.82 40.846 70.645 139.795 70.645 139.795l18.938-8.782 2.193-11.413-9.144-7.27 1.169-9.818-8.88-5.595ZM562.183 381.928q.038-.526.073-1.055a2.049 2.049 0 0 0-.073 1.055Z" fill="#2f2e41"/><path d="M585.597 369.331a25.151 25.151 0 0 0-17.817-18.865 15.767 15.767 0 0 0-11.339-7.528c-4.38-.583-8.77.716-12.981 2.054q-3.903 1.241-7.785 2.544c-2.108.708-4.698 2.323-3.999 4.433a2.72 2.72 0 0 0-3.547 3.882c-.977-1.26-3.236-.452-3.78 1.048-.543 1.499.097 3.16.892 4.542a20.799 20.799 0 0 0 23.745 9.11c2.578-.843 5.213-2.228 7.854-1.61 2.493.585 4.287 2.896 4.997 5.356a19.175 19.175 0 0 1 .419 6.576 3.212 3.212 0 0 1 4.211-1.684c1.883.938 2.56 3.414 2.093 5.465-.467 2.052-5.361 10.007-6.654 11.666a13.946 13.946 0 0 0-3.048 5.461l13.92-2.14.253.253c7.194-5.591 14.386-21.635 12.566-30.563Z" fill="#2f2e41"/><path d="M518.926 560.992a11.926 11.926 0 0 1 17.36-5.752l32.872-26.75 2.2 21.913-31.553 22.044a11.99 11.99 0 0 1-20.88-11.455Z" fill="#a0616a"/><path d="M570.936 554.467c3.961 1.417 7.024.364 8.275-5.67l37.265-25.531-.007-.327c4.86-.376 3.749-72.24-3.706-75.755a35.202 35.202 0 0 0-11.414-20.442l-.157-.123-.199-.003a17.864 17.864 0 0 0-17.618 13.74 126.533 126.533 0 0 0 .225 58.043l2.613 10.844-16.267 13.77c-4.495-1.177-6.49.632-6.16 5.214ZM279.72 618.926l6.95-2.74 56.607 143.636-6.95 2.738z" fill="#e6e6e6"/><path fill="#e6e6e6" d="m247.658 762.561-6.95-2.739 56.607-143.635 6.95 2.74z"/><ellipse cx="289.087" cy="623.348" rx="49.387" ry="19.091" fill="#e6e6e6"/><path d="M259.122 403.342a26.741 26.741 0 0 0 30.614 22.186q1.19-.19 2.346-.486a26.729 26.729 0 0 0 19.839-30.12 26.462 26.462 0 0 0-1.739-6.108 26.732 26.732 0 0 0-51.06 14.528ZM403.257 741.338l12.007-3.57-7.942-49.081-17.721 5.27 13.656 47.381zM329.623 721.965c.73.637 1.463 1.266 2.204 1.896a304.471 304.471 0 0 0 6.723 5.57l-.004.024.048.016.015.01 1.213.512 2.57-4.5 1.186-2.074 1.675-2.936 3.07-5.372 16.16-28.282-17.023-7.176-1.094 2.609-.009-.002-.54 1.293-10.166 24.122-2.075 4.933-.066.149-1.248 2.945-1.077 2.553-1.2 2.852Z" fill="#ffb6b6"/><path d="M240.673 599.566c.838 1.981 1.701 3.959 2.575 5.92q2.435 5.48 5.066 10.837c-.002.008.007.01.014.02a23.435 23.435 0 0 0 3.842 3.86c.058.06.127.104.186.156a16.218 16.218 0 0 0 3.424 2.046c.44.188.89.376 1.33.564a93.607 93.607 0 0 0 4.765 1.805q4.23 1.464 8.448 2.481c.226.061.453.114.68.167 11.595 2.719 23.235 3.142 35.515 2.759 6.063-.183 12.283-.567 18.725-.967 2.106-.137 4.219-.265 6.356-.388.161-.009.332-.024.5-.03 3.055-.18 6.157-.345 9.33-.49 3.996-.181 8.111-.32 12.375-.392l-1.221 5.798a44.543 44.543 0 0 1-4.853 12.703c-2.591 4.9-4.642 8.778-3.034 17.781l.772 4.358a14.287 14.287 0 0 0-.527 12.716l.218.48-16.662 28.21-1.08 1.83 6.091.965L341 713.95l12.7 2.011 24.145-33.858 1.155-1.616.014-.09 9.295-70.944a20.97 20.97 0 0 0 .142-1.902 21.746 21.746 0 0 0-5.883-15.756 20.942 20.942 0 0 0-14.737-6.654l-6.4-.182-13.076-.373-9.212-.257-.184-.004-27.165-.773-.677-8.091-.332-.187-10.556-5.883-36.51-20.346-.094-.049-2.402-1.338-.38.444c-.115.133-.228.266-.333.4a76.927 76.927 0 0 0-8.376 13.246 225.948 225.948 0 0 0-10.327 23.551q-.197.524-.353.953l-.039.086a3.504 3.504 0 0 1-.09.246c-1.482 3.58-1.579 8.221-.652 12.982Z" fill="#2f2e41"/><path d="M243.16 573.272c.207-.505.447-1.013.693-1.503a113.561 113.561 0 0 1 6.362-10.775c2.61-3.957 5.653-8.156 9.2-12.661q2.572-3.274 5.494-6.786 1.464-1.76 3.03-3.58a2.114 2.114 0 0 1 .135-.163l.3-.356 37.538 11.207 10.982 4.14 2.722 7.283-.074 1.795c.008.002.008.002-.001.008l-.187 4.895-.002.009-.242 6.466.067.002 21.627.61 22.288.631 11.972.342a20.929 20.929 0 0 1 14.737 6.653 21.757 21.757 0 0 1 5.883 15.757 20.849 20.849 0 0 1-.13 1.77l6.915 27.978a171.317 171.317 0 0 1 4.714 51.204l4.006 27.232-1.172-.076-17.453-1.126-4.61-.293-7.689-16.185a78.035 78.035 0 0 1-2.417-5.643 78.915 78.915 0 0 1-3.011-9.587l-13.48-54.912q-2.578.034-5.099.033-11.667.043-22.316-.45c-23.086-1.06-42.76-3.974-59.907-8.892q-7.224-2.064-13.866-4.617-2.437-.928-4.796-1.927a46.69 46.69 0 0 1-1.095-.46 21.182 21.182 0 0 1-12.468-15.992 21.613 21.613 0 0 1 1.35-12.03ZM400.899 733.155l12.992-3.875 2.038-.61 1.849 7.907 20.382 7.993a5.073 5.073 0 0 1-.69 9.664l-21.968 5.152-5.617-6.932.354 8.165-8.275 1.942-4.224-28.46ZM328.497 709.961l-1.08 1.829.771.122.309-1.951zM332.327 712.995l11.96 6.388 1.877 1-4.25 6.92 8.859 20.021a5.073 5.073 0 0 1-7.29 6.382l-19.235-11.797.886-8.878-5.494 6.051-7.246-4.442 17.024-23.195Z" fill="#2f2e41"/><path d="M415.971 557.837a9.099 9.099 0 0 1-11.697-7.605l-31.601-6.848 12.011-11.75 28.168 8.304a9.148 9.148 0 0 1 3.12 17.899Z" fill="#ffb6b6"/><path d="m323.16 543.074-58.333-49.85a22.965 22.965 0 0 1-2.537-32.342 22.94 22.94 0 0 1 35.277.478l42.838 52.97 57.458 15.512-1.49 18.98Z" fill="#6c63ff"/><path d="m255.13 491.897-1.236 45.244c-17.002 28.725-18.936 42.673-14.23 50.11l78.91-26.538 1.179-2.813-5.35-19.216 6.62-20.858c1.165-2.18 16.987-15.57 2.155-40.97L293.34 436.66l-10.788-.868c-3.941 10.116-9.952 15.135-17.053 17.468-16.058 14.718-13.7 17.113-10.37 38.637Z" fill="#6c63ff"/><path d="M315.391 384.064a9.063 9.063 0 0 1-4.938 5.296 42.44 42.44 0 0 0-5.894-4.648 35.186 35.186 0 0 1 2.233 5.76c-.041.009-.075.009-.116.017-3.785.506-7.587-.432-11.289-1.361l.515.473a15.595 15.595 0 0 1-8.848 14.227c-2.963 1.361-6.873 2.307-7.603 5.478-.648 2.806 1.784 5.32 4.125 6.989s5.08 3.494 5.462 6.35c.614 4.648-5.346 7.595-6.359 12.168-.88 3.918 2.15 7.653 5.479 9.894s7.246 3.785 9.82 6.873c4.556 5.47 3.087 14.194-1.611 19.547a19.13 19.13 0 0 1-1.627 1.652 41.373 41.373 0 0 0-4.208-4.565 42.439 42.439 0 0 0-5.894-4.648 35.186 35.186 0 0 1 2.233 5.76 37.213 37.213 0 0 1 1.42 7.803 51.552 51.552 0 0 1-10.583 3.677 102.988 102.988 0 0 1-28.106 2.888 51.76 51.76 0 0 1-12.782-1.81 43.111 43.111 0 0 0 1.635-18.675 37.267 37.267 0 0 1-10.666 14.16c-3.893-3.063-6.781-7.404-7.263-12.293-.59-6.01 2.432-11.753 5.785-16.775 3.362-5.021 7.23-9.919 8.708-15.77 2.158-8.533-1.138-17.406-1.56-26.197a40.2 40.2 0 0 1 41.235-42.132 80.47 80.47 0 0 1 14.783 2.257c2.632.565 5.255 1.138 7.886 1.702a53.142 53.142 0 0 1 9.529 2.706 16.324 16.324 0 0 1 6.848 5.055 9.37 9.37 0 0 1 1.651 8.142Z" fill="#2f2e41"/><path d="M661.86 549.975H210.979v-.5a20.444 20.444 0 0 1 20.42-20.421h410.04a20.444 20.444 0 0 1 20.42 20.42Z" fill="#ccc"/><path fill="#ccc" d="m695.214 759.945-6.95 2.85-56.608-215.971 6.951-2.851 56.607 215.972z"/><path fill="#ccc" d="m592.645 759.945 6.95 2.85 56.607-215.971-6.95-2.851-56.607 215.972zM279.364 759.945l-6.95 2.85-56.607-215.971 6.95-2.851 56.607 215.972z"/><path fill="#ccc" d="m176.795 759.945 6.95 2.85 56.607-215.971-6.95-2.851-56.607 215.972z"/><path d="M487.861 513.249a2.997 2.997 0 0 0-2.295-3.892 2.756 2.756 0 0 0-.473-.059l-19.19-.495a3.083 3.083 0 0 0-2.294.99 3.854 3.854 0 0 0-.818-.085 4.55 4.55 0 1 0-.228 9.096 4.612 4.612 0 0 0 1.995-.41l1.766 18.877a2.98 2.98 0 0 0 2.816 2.193l12.475.321a3.021 3.021 0 0 0 2.912-2.04Zm-25.259 4.253a3.254 3.254 0 0 1 .153-6.506c.06 0 .115.029.176.03a3.064 3.064 0 0 0 .01 1.588l1.255 4.498a3.063 3.063 0 0 1-1.594.39Z" fill="#6c63ff"/><path d="M485.566 509.357c-.409 2.338-5.005 3.981-10.532 3.695-5.082-.234-9.237-2.018-9.999-4.133a2.838 2.838 0 0 1 .869-.116l19.189.495a2.756 2.756 0 0 1 .473.06Z" fill="#fff"/><path d="M423.948 505.779a2.997 2.997 0 0 0-2.295-3.892 2.756 2.756 0 0 0-.473-.059l-19.19-.495a3.083 3.083 0 0 0-2.294.99 3.854 3.854 0 0 0-.818-.085 4.55 4.55 0 0 0-.228 9.096 4.612 4.612 0 0 0 1.995-.41l1.766 18.877a2.98 2.98 0 0 0 2.816 2.193l12.475.32a3.021 3.021 0 0 0 2.911-2.039Zm-25.259 4.253a3.254 3.254 0 0 1 .153-6.507c.06 0 .115.03.175.03a3.064 3.064 0 0 0 .01 1.589l1.256 4.498a3.063 3.063 0 0 1-1.594.39Z" fill="#6c63ff"/><path d="M421.653 501.887c-.409 2.337-5.005 3.98-10.532 3.695-5.082-.234-9.237-2.019-9.999-4.134a2.837 2.837 0 0 1 .869-.115l19.189.495a2.756 2.756 0 0 1 .473.059Z" fill="#fff"/><path d="M414.54 537.601a9.099 9.099 0 0 1-12.431-6.335l-32.146-3.49 10.71-12.947 28.885 5.3a9.148 9.148 0 0 1 4.982 17.472Z" fill="#ffb6b6"/><path d="m320.691 532.668-63.246-43.448a22.965 22.965 0 0 1-5.919-31.897 22.94 22.94 0 0 1 35.132-3.23l48.164 48.178 58.77 9.392.511 19.031Z" fill="#6c63ff"/><path d="M880.94 764.193 1.19 764.5a1.19 1.19 0 0 1 0-2.381l879.75-.307a1.19 1.19 0 0 1 0 2.38Z" fill="#cacaca"/><circle cx="461.019" cy="98.88" r="35.64" fill="#fd6584"/><path d="M540.79 82.006c-2.062-6.905-7.885-11.412-14.922-12.401-.078-.011-.151.003-.228-.002a2.223 2.223 0 0 0-.305-.07 44.461 44.461 0 0 0-28.615 6.23c-8.25 5.15-17.86 7.478-27.579 7.857l-.172.007a17.61 17.61 0 0 0-15.75 12.696 2.066 2.066 0 0 0 .92 2.261 9.031 9.031 0 0 0 3.723 1.89q4.44.941 8.912 1.724 8.725 1.527 17.541 2.469a260.846 260.846 0 0 0 35.93 1.358c3.995-.125 7.847-.257 11.507-2.02a17.121 17.121 0 0 0 6.601-5.76 19.423 19.423 0 0 0 2.436-16.239ZM676.808 212.244a17.121 17.121 0 0 0 6.601 5.76c3.66 1.764 7.512 1.896 11.507 2.02a260.846 260.846 0 0 0 35.93-1.357q8.807-.945 17.542-2.47 4.47-.782 8.911-1.723a9.031 9.031 0 0 0 3.724-1.89 2.066 2.066 0 0 0 .92-2.26 17.61 17.61 0 0 0-15.751-12.697l-.172-.007c-9.718-.379-19.329-2.708-27.578-7.858a44.461 44.461 0 0 0-28.616-6.229 2.223 2.223 0 0 0-.304.07c-.077.005-.15-.01-.228.002-7.037.989-12.86 5.496-14.922 12.401a19.423 19.423 0 0 0 2.436 16.238ZM466.714 129.526c-2.061-6.905-7.885-11.412-14.922-12.401-.077-.011-.15.003-.228-.002a2.22 2.22 0 0 0-.304-.07 44.461 44.461 0 0 0-28.616 6.23c-8.249 5.15-17.86 7.479-27.577 7.857l-.173.008a17.61 17.61 0 0 0-15.75 12.695 2.066 2.066 0 0 0 .92 2.261 9.031 9.031 0 0 0 3.723 1.89q4.44.94 8.911 1.724 8.726 1.527 17.542 2.469a260.857 260.857 0 0 0 35.93 1.358c3.995-.125 7.847-.257 11.507-2.02a17.123 17.123 0 0 0 6.601-5.76 19.424 19.424 0 0 0 2.436-16.239Z" fill="#f0f0f0"/></svg>